<?xml version="1.0" standalone="no"?>
<!DOCTYPE svg PUBLIC "-//W3C//DTD SVG 20010904//EN"
 "http://www.w3.org/TR/2001/REC-SVG-20010904/DTD/svg10.dtd">
<svg version="1.0" xmlns="http://www.w3.org/2000/svg"
 width="651.000000pt" height="651.000000pt" viewBox="0 0 651.000000 651.000000"
 preserveAspectRatio="xMidYMid meet">
<metadata>
Created by potrace 1.11, written by Peter Selinger 2001-2013
</metadata>
<g transform="translate(0.000000,651.000000) scale(0.100000,-0.100000)"
fill="#000000" stroke="none">
<path d="M3565 5380 c-258 -32 -481 -59 -495 -61 -14 -2 -25 -10 -25 -18 0 -8
71 -53 160 -102 88 -49 163 -94 168 -101 4 -7 -10 -100 -31 -207 l-38 -194
-105 -18 c-133 -23 -249 -60 -366 -116 l-92 -45 48 -47 c26 -26 53 -63 60 -83
l12 -36 77 1 c42 0 105 -4 138 -9 60 -10 62 -9 88 18 37 40 33 54 -21 74 -105
39 -99 61 27 97 88 26 116 22 105 -12 -5 -16 3 -52 21 -95 6 -15 4 -17 -6 -11
-9 5 -11 4 -6 -4 4 -6 11 -9 15 -7 10 7 73 -58 65 -66 -3 -4 -1 -15 6 -25 10
-16 10 -16 5 5 -4 12 -3 22 0 22 14 0 64 -48 57 -55 -4 -5 -2 -5 5 -1 6 3 38
-7 70 -23 32 -16 70 -34 85 -40 19 -7 28 -18 30 -38 2 -23 8 -29 33 -31 17 -2
42 -8 57 -14 23 -8 26 -13 18 -29 -6 -10 -28 -23 -50 -29 -21 -6 -53 -22 -69
-36 -30 -25 -71 -27 -71 -3 0 5 -8 9 -19 9 -13 0 -20 -9 -24 -30 -4 -17 -13
-30 -21 -30 -47 0 -28 -60 33 -109 l49 -38 -65 -6 c-36 -4 -84 -15 -107 -26
-22 -10 -58 -27 -80 -37 -23 -10 -62 -46 -99 -90 -34 -41 -85 -90 -115 -111
-78 -54 -92 -102 -43 -150 16 -15 34 -44 40 -63 l11 -35 -24 30 c-14 17 -25
35 -26 42 0 6 -4 13 -8 15 -19 7 -102 131 -95 142 3 6 3 8 -2 4 -11 -10 -58
50 -49 63 4 8 3 9 -4 5 -7 -4 -22 10 -38 34 -15 22 -30 40 -35 40 -5 0 -53
-32 -108 -72 l-100 -71 30 -38 c18 -23 27 -44 23 -51 -4 -7 -4 -10 1 -6 4 4
26 -15 47 -43 35 -43 38 -52 27 -67 -12 -15 -12 -16 2 -5 13 11 29 -6 110
-118 52 -72 93 -137 93 -145 -1 -7 2 -12 6 -9 11 7 41 -35 34 -47 -3 -5 -1 -7
4 -6 5 2 25 -17 44 -42 22 -29 42 -44 54 -43 10 1 76 5 145 9 124 7 127 7 125
29 0 13 -4 21 -7 19 -4 -2 -35 36 -70 84 -34 48 -67 93 -73 101 -9 12 -8 12
11 3 12 -7 26 -11 30 -10 26 7 116 -16 140 -36 15 -13 38 -29 51 -35 23 -12
25 -38 3 -33 -7 1 -10 -2 -6 -8 4 -6 -7 -27 -23 -48 -54 -70 -58 -68 122 -62
88 3 197 2 241 -2 159 -15 292 -30 373 -44 l83 -14 27 32 c39 46 62 67 105 94
46 30 49 58 7 73 -32 11 -96 74 -106 104 -5 15 -19 17 -104 17 l-99 0 -7 35
c-9 47 21 105 65 127 19 9 40 30 46 45 41 96 151 119 227 46 l26 -25 7 22 c4
12 26 42 48 68 42 47 42 47 114 50 40 2 80 -1 92 -7 16 -9 20 -9 17 1 -2 7
-10 36 -17 63 -15 60 -25 75 -51 75 -11 0 -33 9 -49 21 -45 32 -59 20 -59 -48
l0 -58 -20 33 c-11 18 -20 47 -20 65 0 18 -7 42 -15 54 -14 20 -14 22 2 27 10
3 52 -3 93 -13 61 -15 76 -16 78 -5 8 34 -105 269 -172 357 l-34 44 34 34 c33
33 34 39 90 329 31 162 59 298 63 302 3 4 85 16 181 28 208 24 220 27 220 43
0 13 -850 485 -909 504 -20 6 -45 11 -56 11 -11 0 -231 -26 -490 -58z m786
-1387 c9 -24 7 -30 -12 -46 -27 -21 -47 -19 -64 8 -21 32 -2 65 35 65 24 0 33
-6 41 -27z m-536 -100 c13 -16 25 -36 25 -46 0 -20 -26 -51 -52 -60 -18 -6
-138 13 -138 22 0 4 10 11 23 16 12 6 22 17 23 25 2 35 5 40 32 54 40 22 60
19 87 -11z m294 -173 c36 -59 37 -66 28 -104 -5 -23 -11 -43 -13 -44 -1 -2
-48 29 -104 69 l-102 72 68 43 c38 24 73 39 77 35 5 -5 26 -37 46 -71z"/>
<path d="M2995 4259 c-4 -6 -5 -12 -2 -15 2 -3 7 2 10 11 7 17 1 20 -8 4z"/>
<path d="M3498 4238 c5 -5 16 -8 23 -6 8 3 3 7 -10 11 -17 4 -21 3 -13 -5z"/>
<path d="M3010 4200 c0 -5 5 -10 11 -10 5 0 7 5 4 10 -3 6 -8 10 -11 10 -2 0
-4 -4 -4 -10z"/>
<path d="M2974 4038 c-3 -4 5 -5 17 -3 30 6 36 14 9 12 -12 -1 -24 -5 -26 -9z"/>
<path d="M2237 3967 c-87 -175 -128 -357 -129 -567 0 -201 33 -361 114 -543
l32 -69 40 6 c22 4 42 8 43 10 2 2 6 28 9 57 8 65 38 122 93 171 22 20 44 38
48 40 62 28 106 68 129 118 14 30 30 63 35 72 15 29 11 121 -7 146 -8 12 -32
29 -52 38 -20 8 -53 26 -73 40 -23 16 -53 26 -86 28 -35 2 -57 10 -72 25 -22
22 -44 29 -106 33 -38 3 -40 5 -43 37 -5 47 7 54 58 36 49 -17 60 -13 42 15
-28 46 -6 80 65 99 23 7 46 17 50 24 4 6 8 67 8 134 l0 123 -81 0 -81 0 -36
-73z"/>
<path d="M2582 4033 c59 -2 158 -2 220 0 62 1 14 3 -107 3 -121 0 -172 -2
-113 -3z"/>
<path d="M2538 3885 c-3 -3 6 -47 18 -98 13 -50 24 -100 24 -109 0 -33 18 -18
60 51 26 44 46 68 55 65 7 -3 16 -1 20 5 4 7 0 8 -11 4 -12 -4 -15 -3 -10 5 4
8 2 10 -8 6 -20 -8 -78 24 -70 38 4 7 3 8 -5 4 -6 -4 -24 2 -40 13 -15 11 -30
18 -33 16z"/>
<path d="M2686 3845 c-18 -14 -18 -14 1 -12 11 0 20 7 20 14 0 7 -1 13 -1 13
-1 0 -9 -7 -20 -15z"/>
<path d="M2506 3803 c-6 -14 -5 -15 5 -6 7 7 10 15 7 18 -3 3 -9 -2 -12 -12z"/>
<path d="M2795 3750 c-3 -6 1 -7 9 -4 18 7 21 14 7 14 -6 0 -13 -4 -16 -10z"/>
<path d="M2570 3646 c0 -2 8 -10 18 -17 15 -13 16 -12 3 4 -13 16 -21 21 -21
13z"/>
<path d="M2980 3510 c0 -5 5 -10 11 -10 5 0 7 5 4 10 -3 6 -8 10 -11 10 -2 0
-4 -4 -4 -10z"/>
<path d="M4275 3200 c3 -5 8 -10 11 -10 2 0 4 5 4 10 0 6 -5 10 -11 10 -5 0
-7 -4 -4 -10z"/>
<path d="M4313 3173 c11 -65 72 -91 144 -61 15 6 55 12 87 12 58 1 59 1 71 36
7 19 18 34 24 33 6 -2 11 2 11 7 0 6 -64 10 -171 10 l-172 0 6 -37z"/>
<path d="M3000 2983 c0 -6 8 -17 18 -24 16 -13 16 -13 2 6 -8 11 -16 22 -17
24 -2 2 -3 0 -3 -6z"/>
<path d="M4568 2865 c-6 -30 -2 -32 12 -6 6 11 6 22 1 25 -5 3 -11 -5 -13 -19z"/>
<path d="M3566 2259 c2 -4 -3 -9 -11 -13 -8 -3 -15 -11 -15 -18 0 -10 3 -9 9
1 8 12 12 13 26 1 9 -7 14 -19 11 -27 -3 -8 -2 -12 3 -9 12 8 44 -31 36 -44
-3 -6 -2 -9 3 -8 14 4 29 -15 222 -281 119 -164 180 -239 189 -236 25 10 181
129 181 138 0 5 -69 105 -154 221 -84 116 -158 221 -164 233 -10 18 -23 22
-99 27 -49 4 -123 10 -165 14 -42 4 -75 5 -72 1z"/>
<path d="M3110 2243 c-67 -8 -282 -41 -284 -45 -71 -94 -309 -428 -308 -432 2
-11 187 -144 194 -140 4 2 88 116 187 253 100 137 195 264 211 281 17 18 30
36 30 40 0 5 9 15 20 23 18 13 19 15 5 21 -9 3 -17 5 -18 4 -1 0 -18 -3 -37
-5z"/>
<path d="M3920 2220 c-8 -5 -10 -10 -5 -10 6 0 17 5 25 10 8 5 11 10 5 10 -5
0 -17 -5 -25 -10z"/>
<path d="M3110 2150 c0 -6 7 -10 15 -10 8 0 15 2 15 4 0 2 -7 6 -15 10 -8 3
-15 1 -15 -4z"/>
<path d="M3178 2123 c7 -3 16 -2 19 1 4 3 -2 6 -13 5 -11 0 -14 -3 -6 -6z"/>
<path d="M3248 2113 c7 -3 16 -2 19 1 4 3 -2 6 -13 5 -11 0 -14 -3 -6 -6z"/>
</g>
</svg>
